<svg width="26" height="26" viewBox="0 0 26 26" fill="none" xmlns="http://www.w3.org/2000/svg">
<path d="M17.9246 0.8125H8.07219C6.14942 0.813033 4.30536 1.57611 2.94443 2.93438C1.58349 4.29264 0.816803 6.13521 0.8125 8.05797V17.8892C0.81691 19.8119 1.58365 21.6544 2.94457 23.0125C4.30549 24.3707 6.14949 25.1337 8.07219 25.1343H17.9246C19.8479 25.1346 21.6928 24.3719 23.0544 23.0136C24.4161 21.6552 25.1832 19.8121 25.1875 17.8888V8.05756C25.1831 6.13431 24.4159 4.29136 23.0543 2.93309C21.6927 1.57481 19.8478 0.812172 17.9246 0.8125ZM22.7337 17.8888C22.7331 18.5197 22.6081 19.1442 22.3661 19.7268C22.124 20.3094 21.7696 20.8385 21.323 21.2841C20.8764 21.7297 20.3464 22.083 19.7633 22.3238C19.1802 22.5646 18.5554 22.6881 17.9246 22.6874H8.07219C7.44133 22.6881 6.81651 22.5646 6.23341 22.3238C5.65031 22.083 5.12034 21.7297 4.67376 21.2841C4.22719 20.8385 3.87276 20.3094 3.6307 19.7268C3.38864 19.1442 3.26369 18.5197 3.263 17.8888V8.05756C3.26369 7.4267 3.38864 6.80216 3.6307 6.21959C3.87276 5.63702 4.22719 5.10783 4.67376 4.66223C5.12034 4.21664 5.65031 3.86337 6.23341 3.62259C6.81651 3.38181 7.44133 3.25824 8.07219 3.25894H17.9246C18.5555 3.25824 19.1803 3.38183 19.7634 3.62263C20.3466 3.86343 20.8765 4.21674 21.3231 4.66238C21.7697 5.10801 22.1241 5.63725 22.3662 6.21987C22.6082 6.80249 22.7331 7.42708 22.7337 8.05797V17.8888Z" fill="white"/>
<rect x="3" y="3" width="20" height="20" fill="white"/>
<path d="M12.9999 6.68282C11.7563 6.68523 10.5414 7.0562 9.50851 7.74886C8.47567 8.44152 7.67131 9.42478 7.19708 10.5744C6.72284 11.724 6.60001 12.9884 6.8441 14.2078C7.08819 15.4273 7.68825 16.5469 8.56846 17.4255C9.44867 18.304 10.5695 18.9019 11.7894 19.1436C13.0093 19.3853 14.2734 19.26 15.4221 18.7836C16.5709 18.3071 17.5526 17.5009 18.2432 16.4667C18.9339 15.4325 19.3025 14.2168 19.3025 12.9732C19.2987 11.3039 18.6331 9.70429 17.4516 8.52508C16.2701 7.34587 14.6692 6.68336 12.9999 6.68282ZM12.9999 16.8188C12.2401 16.8171 11.4979 16.5902 10.8669 16.1669C10.236 15.7435 9.74466 15.1426 9.45506 14.4402C9.16546 13.7377 9.09056 12.9652 9.23983 12.2202C9.38909 11.4752 9.75582 10.7911 10.2937 10.2544C10.8316 9.71776 11.5164 9.35255 12.2618 9.20494C13.0071 9.05732 13.7795 9.13393 14.4813 9.42509C15.1831 9.71625 15.7829 10.2089 16.2048 10.8408C16.6268 11.4726 16.852 12.2154 16.852 12.9752C16.8508 13.9957 16.4443 14.9739 15.7219 15.6947C14.9995 16.4155 14.0204 16.8198 12.9999 16.8188ZM20.8255 6.72995C20.8262 7.0289 20.7381 7.32133 20.5725 7.57021C20.4069 7.81909 20.1711 8.01325 19.8951 8.1281C19.6191 8.24295 19.3152 8.27333 19.0219 8.2154C18.7286 8.15748 18.4591 8.01384 18.2475 7.80267C18.0359 7.59151 17.8917 7.32231 17.8331 7.02914C17.7746 6.73598 17.8043 6.43203 17.9185 6.15577C18.0328 5.87951 18.2264 5.64336 18.475 5.4772C18.7235 5.31105 19.0157 5.22235 19.3147 5.22235C19.5129 5.22209 19.7092 5.26087 19.8924 5.3365C20.0756 5.41213 20.2421 5.52312 20.3825 5.66312C20.5228 5.80313 20.6341 5.9694 20.7101 6.15245C20.7862 6.3355 20.8254 6.53174 20.8255 6.72995Z" fill="#CBE346"/>
<circle cx="19.32" cy="6.75" r="1" fill="white"/>
</svg>
