<svg width="24" height="24" viewBox="0 0 24 24" fill="none" xmlns="http://www.w3.org/2000/svg">
<g clip-path="url(#clip0)">
<path d="M22.875 10.063C20.433 15.28 14.538 22.382 10.812 22.382C7.14001 22.382 6.60901 14.551 4.60401 9.33899C3.61701 6.77399 2.98001 7.36299 1.13001 8.65799L0.00201416 7.20299C2.70001 4.83099 5.40001 2.07599 7.05901 1.92299C8.92701 1.74399 10.077 3.02099 10.507 5.75499C11.075 9.34799 11.869 14.925 13.255 14.925C14.335 14.925 16.996 10.501 17.133 8.91899C17.376 6.60299 15.43 6.53299 13.741 7.25599C16.414 -1.498 27.534 0.113995 22.875 10.063Z" fill="white"/>
</g>
<defs>
<clipPath id="clip0">
<rect width="24" height="24" fill="white"/>
</clipPath>
</defs>
</svg>
